HIERARCHY
ROOT Hips
{
	OFFSET	0.00	0.00	0.00
	CHANNELS 6 Xposition Yposition Zposition Zrotation Xrotation Yrotation
	JOINT LeftUpLeg
	{
		OFFSET	 0.126116	-0.065224	 0.014019
		CHANNELS 3 Zrotation Xrotation Yrotation
		JOINT LeftLeg
		{
			OFFSET	 0.000000	 0.569914	 0.000000
			CHANNELS 3 Zrotation Xrotation Yrotation
			JOINT LeftFoot
			{
				OFFSET	 0.000000	 0.544423	 0.000000
				CHANNELS 3 Zrotation Xrotation Yrotation
				JOINT LeftToeBase
				{
					OFFSET	 0.000000	 0.207117	 0.000000
					CHANNELS 3 Zrotation Xrotation Yrotation
					End Site
					{
						OFFSET	 0.000000	 0.207117	 0.000000
					}
				}
			}
		}
	}
	JOINT RightUpLeg
	{
		OFFSET	-0.124023	-0.065224	 0.008373
		CHANNELS 3 Zrotation Xrotation Yrotation
		JOINT RightLeg
		{
			OFFSET	 0.000000	 0.570047	 0.000000
			CHANNELS 3 Zrotation Xrotation Yrotation
			JOINT RightFoot
			{
				OFFSET	 0.000000	 0.544354	 0.000000
				CHANNELS 3 Zrotation Xrotation Yrotation
				JOINT RightToeBase
				{
					OFFSET	 0.000000	 0.207540	 0.000000
					CHANNELS 3 Zrotation Xrotation Yrotation
					End Site
					{
						OFFSET	 0.000000	 0.207540	 0.000000
					}
				}
			}
		}
	}
	JOINT Spine
	{
		OFFSET	 0.000184	 0.117403	 0.007763
		CHANNELS 3 Zrotation Xrotation Yrotation
		JOINT Spine1
		{
			OFFSET	 0.000000	 0.137269	 0.000000
			CHANNELS 3 Zrotation Xrotation Yrotation
			JOINT Spine2
			{
				OFFSET	 0.000000	 0.156879	 0.000000
				CHANNELS 3 Zrotation Xrotation Yrotation
				JOINT LeftShoulder
				{
					OFFSET	 0.080501	 0.160143	 0.002496
					CHANNELS 3 Zrotation Xrotation Yrotation
					JOINT LeftArm
					{
						OFFSET	 0.000000	 0.164363	 0.000000
						CHANNELS 3 Zrotation Xrotation Yrotation
						JOINT LeftForeArm
						{
							OFFSET	 0.000000	 0.364576	 0.000000
							CHANNELS 3 Zrotation Xrotation Yrotation
							JOINT LeftHand
							{
								OFFSET	 0.000000	 0.360812	 0.000000
								CHANNELS 3 Zrotation Xrotation Yrotation
								JOINT LeftHandIndex1
								{
									OFFSET	 0.000000	 0.086006	 0.000000
									CHANNELS 3 Zrotation Xrotation Yrotation
									JOINT LeftHandIndex2
									{
										OFFSET	 0.000000	 0.047237	 0.000000
										CHANNELS 3 Zrotation Xrotation Yrotation
										JOINT LeftHandIndex3
										{
											OFFSET	-0.004284	 0.038165	 0.000551
											CHANNELS 3 Zrotation Xrotation Yrotation
											End Site
											{
												OFFSET	-0.004284	 0.038165	 0.000551
											}
										}
									}
								}
							}
						}
					}
				}
				JOINT Neck
				{
					OFFSET	 0.000000	 0.176489	 0.000000
					CHANNELS 3 Zrotation Xrotation Yrotation
					JOINT Head
					{
						OFFSET	 0.000000	 0.077941	 0.001747
						CHANNELS 3 Zrotation Xrotation Yrotation
						End Site
						{
							OFFSET	 0.000000	 0.077941	 0.001747
						}
					}
				}
				JOINT RightShoulder
				{
					OFFSET	-0.080363	 0.159706	-0.000306
					CHANNELS 3 Zrotation Xrotation Yrotation
					JOINT RightArm
					{
						OFFSET	 0.000000	 0.164196	 0.000000
						CHANNELS 3 Zrotation Xrotation Yrotation
						JOINT RightForeArm
						{
							OFFSET	 0.000000	 0.365611	 0.000000
							CHANNELS 3 Zrotation Xrotation Yrotation
							JOINT RightHand
							{
								OFFSET	 0.000000	 0.360648	 0.000000
								CHANNELS 3 Zrotation Xrotation Yrotation
								JOINT RightHandIndex1
								{
									OFFSET	 0.000000	 0.069977	 0.000000
									CHANNELS 3 Zrotation Xrotation Yrotation
									JOINT RightHandIndex2
									{
										OFFSET	 0.000000	 0.052305	 0.000000
										CHANNELS 3 Zrotation Xrotation Yrotation
										JOINT RightHandIndex3
										{
											OFFSET	 0.009002	 0.042196	 0.000782
											CHANNELS 3 Zrotation Xrotation Yrotation
											End Site
											{
												OFFSET	 0.009002	 0.042196	 0.000782
											}
										}
									}
								}
							}
						}
					}
				}
			}
		}
	}
}
MOTION
Frames:    6
Frame Time: 0.03333334
 0.001406	 1.271625	 0.063374	 0.015593	-0.011744	 179.999900	-175.583600	 0.739691	-17.940730	 2.058470	-9.623071	-0.084161	-5.748559	 68.897360	 4.623978	 1.292262	 28.425850	-2.713146	 175.552700	 1.260685	 17.964820	-2.125905	-10.227990	 0.075972	 5.821887	 69.104840	-4.735169	-1.288183	 28.361890	 2.710176	-0.085513	 2.704583	-0.087572	 0.008097	 3.690146	-0.000993	-0.003827	-4.717752	-0.004157	-101.478000	 1.740674	 90.353390	 61.825810	 41.781360	-52.019490	 1.872032	 3.832930	 1.355968	-27.867230	-7.778114	-0.796990	-6.580301	 5.266122	 0.000000	 0.000000	 0.000000	 0.000000	 0.000000	 0.000000	 0.000000	 0.089846	-3.783161	 0.005928	 0.000015	 1.263154	-0.001370	 101.796200	-0.213313	-89.955440	-7.761462	 64.557430	-1.194631	-2.833423	 4.278595	 1.420233	-15.479670	-13.131600	 3.527630	 15.208500	 5.323790	 0.000000	 0.000000	 0.000000	 0.000000	 0.000000	 0.000000	 0.000000
 0.001402	 1.273904	 0.063223	 0.015582	-0.011746	 179.999900	-175.537100	 0.734653	-18.496970	 2.058503	-9.623232	-0.084150	-5.667789	 68.464490	 4.561043	 1.292262	 28.425850	-2.713146	 175.503500	 1.254979	 18.521240	-2.125922	-10.228070	 0.075968	 5.736240	 68.674370	-4.668981	-1.288183	 28.361890	 2.710176	-0.047847	 2.705511	-0.885653	 0.008075	 3.690143	-0.000993	-0.003816	-4.717752	-0.004156	-101.478000	 1.740670	 90.353390	 61.749340	 41.635460	-51.924760	 2.220227	 3.845691	 1.009903	-27.951110	-8.141992	-0.997091	-6.580301	 5.266122	 0.000000	 0.000000	 0.000000	 0.000000	 0.000000	 0.000000	 0.000000	 0.089846	-3.783161	 0.005928	 0.000015	 1.263154	-0.001370	 101.796200	-0.213310	-89.955440	-5.910061	 62.886200	-2.834480	-5.200365	 7.326591	 1.960446	-14.860930	-15.025420	 3.048032	 15.208500	 5.323790	 0.000000	 0.000000	 0.000000	 0.000000	 0.000000	 0.000000	 0.000000
 0.001400	 1.275488	 0.063118	 0.015632	-0.011749	 179.999900	-175.504800	 0.730780	-18.883540	 2.058449	-9.622972	-0.084158	-5.613665	 68.163680	 4.519703	 1.292262	 28.425850	-2.713146	 175.469300	 1.250528	 18.907840	-2.125826	-10.227610	 0.075979	 5.678559	 68.375180	-4.625184	-1.288183	 28.361890	 2.710176	-0.010915	 2.705912	-1.668012	 0.008158	 3.690145	-0.000994	-0.003858	-4.717756	-0.004165	-101.478000	 1.740677	 90.353390	 61.693080	 41.532220	-51.854030	 2.561092	 3.856838	 0.670270	-28.011990	-8.534879	-1.198361	-6.580301	 5.266122	 0.000000	 0.000000	 0.000000	 0.000000	 0.000000	 0.000000	 0.000000	 0.089846	-3.783161	 0.005928	 0.000015	 1.263154	-0.001370	 101.796200	-0.213317	-89.955440	-3.700592	 60.744940	-4.757488	-8.229590	 11.289840	 2.773651	-13.996160	-17.411900	 2.440668	 15.208500	 5.323790	 0.000000	 0.000000	 0.000000	 0.000000	 0.000000	 0.000000	 0.000000
 0.001397	 1.277246	 0.063003	 0.015595	-0.011746	 179.999900	-175.469100	 0.726216	-19.313330	 2.058427	-9.622885	-0.084171	-5.555821	 67.829750	 4.476395	 1.292262	 28.425850	-2.713146	 175.431300	 1.245628	 19.337660	-2.125871	-10.227830	 0.075971	 5.616963	 68.043240	-4.579287	-1.288183	 28.361890	 2.710176	 0.040411	 2.705632	-2.755220	 0.008077	 3.690143	-0.000993	-0.003824	-4.717721	-0.004211	-101.478000	 1.740669	 90.353400	 61.628030	 41.415540	-51.770820	 3.034251	 3.870530	 0.198185	-28.081890	-9.104449	-1.481969	-6.580301	 5.266122	 0.000000	 0.000000	 0.000000	 0.000000	 0.000000	 0.000000	 0.000000	 0.089846	-3.783161	 0.005928	 0.000015	 1.263154	-0.001370	 101.796200	-0.213316	-89.955450	-2.040112	 58.759620	-6.150304	-11.240810	 14.874180	 3.912414	-13.352300	-19.816620	 1.842081	 15.208500	 5.323790	 0.000000	 0.000000	 0.000000	 0.000000	 0.000000	 0.000000	 0.000000
 0.001395	 1.278823	 0.062898	 0.015593	-0.011744	 179.999900	-175.436900	 0.721999	-19.699030	 2.058444	-9.622947	-0.084165	-5.505360	 67.530280	 4.439244	 1.292262	 28.425850	-2.713146	 175.397300	 1.241028	 19.723350	-2.125917	-10.228050	 0.075970	 5.563169	 67.745580	-4.539842	-1.288183	 28.361890	 2.710176	 0.095578	 2.704246	-3.924155	 0.008086	 3.690145	-0.000993	-0.003820	-4.717752	-0.004157	-101.478000	 1.740672	 90.353390	 61.566310	 41.309050	-51.692640	 3.543601	 3.884712	-0.310271	-28.146640	-9.734244	-1.788645	-6.580301	 5.266122	 0.000000	 0.000000	 0.000000	 0.000000	 0.000000	 0.000000	 0.000000	 0.089846	-3.783161	 0.005928	 0.000015	 1.263154	-0.001370	 101.796200	-0.213310	-89.955440	-0.896818	 57.120380	-7.067372	-13.922040	 17.783600	 5.168282	-12.938720	-21.964120	 1.300949	 15.208500	 5.323790	 0.000000	 0.000000	 0.000000	 0.000000	 0.000000	 0.000000	 0.000000
 0.001375	 1.291490	 0.062060	 0.015576	-0.011744	 179.999900	-175.179200	 0.679946	-22.807530	 2.058501	-9.623221	-0.084156	-5.147706	 65.124020	 4.199335	 1.292262	 28.425850	-2.713146	 175.124200	 1.194468	 22.831740	-2.125891	-10.227920	 0.075971	 5.180981	 65.352970	-4.283394	-1.288183	 28.361890	 2.710176	 0.805405	 2.583378	-19.221420	 0.008047	 3.690145	-0.000993	-0.003799	-4.717752	-0.004157	-101.478000	 1.740666	 90.353390	 60.921940	 40.362900	-50.865440	 10.410320	 4.029957	-7.181727	-28.719830	-18.256980	-6.021271	-6.580301	 5.266122	 0.000000	 0.000000	 0.000000	 0.000000	 0.000000	 0.000000	 0.000000	 0.089846	-3.783161	 0.005928	 0.000015	 1.263154	-0.001370	 101.796200	-0.213317	-89.955440	 3.118749	 44.912910	-9.005540	-43.102820	 37.257230	 26.983650	-13.941280	-42.357890	-6.108864	 15.208500	 5.323790	 0.000000	 0.000000	 0.000000	 0.000000	 0.000000	 0.000000	 0.000000
